<mxfile host="app.diagrams.net" modified="2023-11-07T10:28:23.405Z" agent="Mozilla/5.0 (Windows NT 10.0; Win64; x64) AppleWebKit/537.36 (KHTML, like Gecko) Chrome/119.0.0.0 Safari/537.36" version="21.6.5" etag="FV_md_FSuI5u9OHVVZaj" type="github">
  <diagram name="Страница 1" id="uk_p9xTnEjoXRPghW5i2">
    <mxGraphModel>
      <root>
        <mxCell id="0" />
        <mxCell id="1" parent="0" />
      </root>
    </mxGraphModel>
  </diagram>
</mxfile>
